#!OML:ASF I:\Actors\actors\Patient Classification 1\Patient 1\Session 1\Subject1.ASF
:FULLY-SPECIFIED
:DEGREES
619
root -1.14222 17.5175 7.61718 3.15376 4.51141 -5.909
lowerback 2.43727 0.91779 7.76371
upperback -8.98274 1.90668 0.202646
thorax -10.7973 0.27373 -4.34235
lowerneck -12.6654 0.186751 1.19555
upperneck 28.704 -1.76545 5.93776
head 11.4921 0.0936783 1.75247
rclavicle 1.77912e-014 -1.63003e-014
rhumerus -67.4093 -45.9313 -34.0192
rradius 12.2166
rwrist 97.0377
rhand -24.2885 -25.3705
rfingers 7.12502
rthumb 2.19873 -1135.34
lclavicle 1.77912e-014 -1.63003e-014
lhumerus -117.016 47.6914 -36.6984
lradius 11.3862
lwrist -94.4343
lhand -19.4727 -15.2373
lfingers 7.12502
lthumb 6.8489 14.6319
rfemur 2.7981 21.2148 28.7523
rtibia 3.74075
rfoot -13.9476 -24.0414
rtoes 8.67095
lfemur 6.02117 -31.6212 -13.614
ltibia -1.47143
lfoot -9.21981 36.7202
ltoes -3.54466
620
root -1.12341 17.516 7.6092 3.10355 4.49693 -5.92399
lowerback 2.54718 0.826693 7.76178
upperback -8.97515 1.79755 0.249513
thorax -10.8718 0.220074 -4.28148
lowerneck -12.6906 0.234963 1.01665
upperneck 28.6417 -1.67921 6.04062
head 11.4714 0.124338 1.83172
rclavicle 1.70955e-014 2.06736e-014
rhumerus -66.7248 -45.5999 -34.6282
rradius 12.4292
rwrist 96.5224
rhand -24.4459 -25.4431
rfingers 7.12502
rthumb 2.04674 -1135.41
lclavicle 1.70955e-014 2.06736e-014
lhumerus -111.218 49.0738 -29.6552
lradius 11.3667
lwrist -89.5382
lhand -18.3261 -16.4287
lfingers 7.12502
lthumb 7.95563 13.4016
rfemur 2.87176 21.3877 28.7379
rtibia 3.66878
rfoot -13.8636 -24.2281
rtoes 8.62119
lfemur 6.36437 -32.0859 -13.8362
ltibia -1.82622
lfoot -9.3891 37.1816
ltoes -2.75077
621
root -1.10251 17.5157 7.59944 3.05486 4.45222 -5.96938
lowerback 2.64107 0.760194 7.79543
upperback -8.97256 1.7241 0.303905
thorax -10.9376 0.181433 -4.23551
lowerneck -12.5153 0.227717 0.854803
upperneck 28.4727 -1.70112 6.26544
head 11.3739 0.117427 1.93465
rclavicle 1.58034e-014 3.29983e-014
rhumerus -66.7927 -45.6818 -34.0255
rradius 12.452
rwrist 97.31
rhand -24.2789 -25.4705
rfingers 7.12502
rthumb 2.20805 -1135.44
lclavicle 1.58034e-014 3.29983e-014
lhumerus -110.131 49.2135 -28.7365
lradius 11.4351
lwrist -88.5069
lhand -17.1325 -16.9016
lfingers 7.12502
lthumb 9.10748 12.8818
rfemur 2.90081 21.4331 28.7151
rtibia 3.63614
rfoot -13.7334 -24.2762
rtoes 8.07421
lfemur 6.66589 -32.4761 -14.0275
ltibia -2.10905
lfoot -9.5016 37.6272
ltoes -2.28653
622
root -1.08233 17.5158 7.5902 2.97705 4.35784 -6.05461
lowerback 2.74872 0.721712 7.80782
upperback -8.96349 1.69022 0.384974
thorax -10.9996 0.16571 -4.1532
lowerneck -12.4409 0.15555 0.639084
upperneck 28.3902 -1.78698 6.40407
head 11.332 0.0683305 2.00916
rclavicle 1.30701e-014 -1.17283e-014
rhumerus -66.72 -45.651 -33.6634
rradius 12.4273
rwrist 97.4196
rhand -24.1483 -25.4672
rfingers 7.12502
rthumb 2.33415 -1135.43
lclavicle 1.30701e-014 -1.17283e-014
lhumerus -111.333 48.9582 -30.6405
lradius 11.5776
lwrist -89.8533
lhand -16.6765 -16.5313
lfingers 7.12502
lthumb 9.54749 13.2324
rfemur 2.95064 21.457 28.7467
rtibia 3.6331
rfoot -13.6987 -24.26
rtoes 7.80423
lfemur 7.00475 -32.9175 -14.2301
ltibia -2.31017
lfoot -9.7228 38.1307
ltoes -1.67562
623
root -1.06165 17.5155 7.57937 2.91719 4.23518 -6.05689
lowerback 2.8421 0.70314 7.71998
upperback -8.9437 1.67153 0.453275
thorax -11.0379 0.166734 -4.02996
lowerneck -12.3206 0.0616641 0.776676
upperneck 28.3596 -1.89538 6.20453
head 11.2969 0.00585228 1.89555
rclavicle -1.61513e-014 1.5704e-014
rhumerus -65.8798 -45.2096 -34.4609
rradius 12.4824
rwrist 96.1787
rhand -24.1242 -25.4983
rfingers 7.12502
rthumb 2.35744 -1135.47
lclavicle -1.61513e-014 1.5704e-014
lhumerus -112.267 48.8777 -32.0239
lradius 11.7065
lwrist -91.3303
lhand -16.939 -16.1111
lfingers 7.12502
lthumb 9.29417 13.6641
rfemur 2.95043 21.3336 28.6311
rtibia 3.63405
rfoot -13.6485 -24.0789
rtoes 7.5377
lfemur 7.2804 -33.2335 -14.5027
ltibia -2.45849
lfoot -9.78426 38.5149
ltoes -1.29674
624
root -1.04283 17.5153 7.56609 2.88116 4.11087 -6.05931
lowerback 2.94202 0.708217 7.6155
upperback -8.92939 1.68253 0.503546
thorax -11.0822 0.182304 -3.92067
lowerneck -12.1673 -0.0585115 1.0315
upperneck 28.324 -2.05602 5.96092
head 11.2537 -0.0737113 1.73872
rclavicle -7.8023e-015 4.21423e-014
rhumerus -64.9179 -44.7164 -35.5004
rradius 12.5408
rwrist 94.5069
rhand -24.1338 -25.6177
rfingers 7.12502
rthumb 2.34815 -1135.58
lclavicle -7.8023e-015 4.21423e-014
lhumerus -112.654 49.0232 -32.6606
lradius 11.726
lwrist -92.3722
lhand -17.4993 -16.4217
lfingers 7.12502
lthumb 8.75349 13.3768
rfemur 2.88834 21.2345 28.5111
rtibia 3.6738
rfoot -13.552 -23.9125
rtoes 7.18605
lfemur 7.39828 -33.229 -14.6317
ltibia -2.56309
lfoot -9.49491 38.6232
ltoes -1.87817
